<svg xmlns="http://www.w3.org/2000/svg" xmlns:xlink="http://www.w3.org/1999/xlink" width="150" zoomAndPan="magnify" viewBox="0 0 112.5 112.499997" height="150" preserveAspectRatio="xMidYMid meet" version="1.0"><defs><clipPath id="ed4e8c9420"><path d="M 0 0 L 34.613281 0 L 34.613281 112 L 0 112 Z M 0 0 " clip-rule="nonzero"/></clipPath><clipPath id="238adaa26f"><path d="M 38.714844 0 L 73.328125 0 L 73.328125 112 L 38.714844 112 Z M 38.714844 0 " clip-rule="nonzero"/></clipPath><clipPath id="f2036438fc"><path d="M 77.386719 0 L 112.003906 0 L 112.003906 112 L 77.386719 112 Z M 77.386719 0 " clip-rule="nonzero"/></clipPath></defs><g clip-path="url(#ed4e8c9420)"><path fill="#ff0000" d="M 0 0 L 34.613281 0 L 34.613281 111.957031 L 0 111.957031 Z M 0 0 " fill-opacity="1" fill-rule="nonzero"/></g><g clip-path="url(#238adaa26f)"><path fill="#00ff00" d="M 38.714844 0 L 73.328125 0 L 73.328125 111.957031 L 38.714844 111.957031 Z M 38.714844 0 " fill-opacity="1" fill-rule="nonzero"/></g><g clip-path="url(#f2036438fc)"><path fill="#0000ff" d="M 77.386719 0 L 112.003906 0 L 112.003906 111.957031 L 77.386719 111.957031 Z M 77.386719 0 " fill-opacity="1" fill-rule="nonzero"/></g></svg>