<svg xmlns="http://www.w3.org/2000/svg" xmlns:xlink="http://www.w3.org/1999/xlink" width="150" zoomAndPan="magnify" viewBox="0 0 112.5 112.499997" height="150" preserveAspectRatio="xMidYMid meet" version="1.0"><defs><clipPath id="a7d97a8a64"><path d="M 2.546875 39.480469 L 35.585938 39.480469 L 35.585938 72.519531 L 2.546875 72.519531 Z M 2.546875 39.480469 " clip-rule="nonzero"/></clipPath><clipPath id="6af8d9e5ea"><path d="M 19.066406 39.480469 C 9.941406 39.480469 2.546875 46.878906 2.546875 56 C 2.546875 65.125 9.941406 72.519531 19.066406 72.519531 C 28.191406 72.519531 35.585938 65.125 35.585938 56 C 35.585938 46.878906 28.191406 39.480469 19.066406 39.480469 Z M 19.066406 39.480469 " clip-rule="nonzero"/></clipPath><clipPath id="1e8da3505f"><path d="M 39.5 39.480469 L 72.539062 39.480469 L 72.539062 72.519531 L 39.5 72.519531 Z M 39.5 39.480469 " clip-rule="nonzero"/></clipPath><clipPath id="aad4ad6b02"><path d="M 56.019531 39.480469 C 46.894531 39.480469 39.5 46.878906 39.5 56 C 39.5 65.125 46.894531 72.519531 56.019531 72.519531 C 65.144531 72.519531 72.539062 65.125 72.539062 56 C 72.539062 46.878906 65.144531 39.480469 56.019531 39.480469 Z M 56.019531 39.480469 " clip-rule="nonzero"/></clipPath><clipPath id="47b524be2f"><path d="M 76.414062 39.480469 L 109.457031 39.480469 L 109.457031 72.519531 L 76.414062 72.519531 Z M 76.414062 39.480469 " clip-rule="nonzero"/></clipPath><clipPath id="373cb3ca56"><path d="M 92.933594 39.480469 C 83.8125 39.480469 76.414062 46.878906 76.414062 56 C 76.414062 65.125 83.8125 72.519531 92.933594 72.519531 C 102.058594 72.519531 109.457031 65.125 109.457031 56 C 109.457031 46.878906 102.058594 39.480469 92.933594 39.480469 Z M 92.933594 39.480469 " clip-rule="nonzero"/></clipPath></defs><g clip-path="url(#a7d97a8a64)"><g clip-path="url(#6af8d9e5ea)"><path fill="#ff0000" d="M 2.546875 39.480469 L 35.585938 39.480469 L 35.585938 72.519531 L 2.546875 72.519531 Z M 2.546875 39.480469 " fill-opacity="1" fill-rule="nonzero"/></g></g><g clip-path="url(#1e8da3505f)"><g clip-path="url(#aad4ad6b02)"><path fill="#00ff00" d="M 39.5 39.480469 L 72.539062 39.480469 L 72.539062 72.519531 L 39.5 72.519531 Z M 39.5 39.480469 " fill-opacity="1" fill-rule="nonzero"/></g></g><g clip-path="url(#47b524be2f)"><g clip-path="url(#373cb3ca56)"><path fill="#0000ff" d="M 76.414062 39.480469 L 109.457031 39.480469 L 109.457031 72.519531 L 76.414062 72.519531 Z M 76.414062 39.480469 " fill-opacity="1" fill-rule="nonzero"/></g></g></svg>